<?xml version="1.0" encoding="iso-8859-1"?>
<!-- Generator: Adobe Illustrator 19.0.0, SVG Export Plug-In . SVG Version: 6.00 Build 0)  -->
<svg version="1.1" id="Layer_1" xmlns="http://www.w3.org/2000/svg" xmlns:xlink="http://www.w3.org/1999/xlink" x="0px" y="0px"
	 viewBox="0 0 512 512" style="enable-background:new 0 0 512 512;" xml:space="preserve">
<circle style="fill:#273B7A;" cx="256" cy="256" r="256"/>
<path style="fill:#121149;" d="M504.491,317.719L324.656,137.885l-20.79,108.927l-46.494,86.7L237.18,313.32l-71.604,41.841
	l149.882,149.882C408.329,482.952,481.578,410.271,504.491,317.719z"/>
<circle style="fill:#D35933;" cx="227.556" cy="369.778" r="28.444"/>
<path style="fill:#FFC61B;" d="M165.578,355.161h180.846V196.692c0-49.94-40.484-90.422-90.422-90.422l0,0
	c-49.94,0-90.422,40.484-90.422,90.422v158.468H165.578z"/>
<path style="fill:#EAA22F;" d="M346.422,196.692c0-49.94-40.484-90.422-90.422-90.422l0,0c-0.193,0-0.381,0.014-0.574,0.014v248.877
	h90.996V196.692L346.422,196.692z"/>
<rect x="165.581" y="320.078" style="fill:#E09112;" width="180.855" height="35.09"/>
<rect x="255.431" y="320.078" style="fill:#FF5419;" width="90.996" height="35.09"/>
<g>
</g>
<g>
</g>
<g>
</g>
<g>
</g>
<g>
</g>
<g>
</g>
<g>
</g>
<g>
</g>
<g>
</g>
<g>
</g>
<g>
</g>
<g>
</g>
<g>
</g>
<g>
</g>
<g>
</g>
</svg>
